<?xml version="1.0" encoding="utf-8"?>
<!-- Generator: Adobe Illustrator 24.1.2, SVG Export Plug-In . SVG Version: 6.00 Build 0)  -->
<svg version="1.1" id="レイヤー_1" xmlns="http://www.w3.org/2000/svg" xmlns:xlink="http://www.w3.org/1999/xlink" x="0px"
	 y="0px" viewBox="0 0 150 64.6" style="enable-background:new 0 0 150 64.6;" xml:space="preserve">
<style type="text/css">
	.st0{fill:#345C8D;}
	.st1{fill:#3F312B;}
</style>
<g id="レイヤー_2_1_">
	<g id="レイヤー_1-2">
		<path class="st0" d="M64.3,0.7c0.1,0.2,0.1,0.4,0.1,0.6v0.8c-3.2,0.4-6.3,0.8-9.4,1c-0.1-0.2-0.2-0.5-0.2-0.7V1.6
			C58,1.3,61.2,1,64.3,0.7z M61.5,7.1c0,0.6,0.1,1.2,0.2,1.7H62c0.8,0,1.6,0,2.4,0.1v1.2c-0.8,0.2-1.6,0.3-2.5,0.2h-0.2
			c0.1,1,0.1,2.1,0.2,3.2c-0.8,0.2-1.6,0.4-2.4,0.3c-0.2-0.4-0.3-0.8-0.3-1.2c0.3-0.1,0.7-0.1,1.1-0.2c-0.1-0.8-0.1-1.5-0.2-2.2
			c-1.7,0-3-0.1-3.8-0.1c-0.1-0.2-0.1-0.4-0.1-0.7c0-0.3,0-0.5,0-0.6c1.1,0,2.4,0,3.8-0.1c-0.1-0.6-0.1-1.2-0.2-1.8
			C58.9,7,58,7,57.1,6.9V6.1c0-0.2,0-0.4,0-0.5c0.8,0,1.6,0,2.5,0c0-0.3-0.1-0.7-0.1-1c0.5-0.1,1-0.2,1.5-0.2
			c0.1,0.4,0.2,0.9,0.2,1.3l1.8,0.1c0,0.5,0,0.9-0.1,1.4C62.5,7.2,62,7.2,61.5,7.1z"/>
		<path class="st0" d="M80.6,1.7c0,0.1-0.2,0.2-0.5,0.3c-0.2,0.1-0.4,0.1-0.6,0.2c0,0-0.2-0.2-0.3-0.6c0-0.2-0.1-0.4-0.1-0.6
			c0.4-0.2,0.7-0.3,1.2-0.4c0.1,0,0.2,0.2,0.3,0.5C80.5,1.3,80.5,1.5,80.6,1.7z M78.3,2.6c0,0.1-0.2,0.2-0.6,0.3
			C77.6,3,77.4,3,77.1,3.1c-0.1,0-0.2-0.2-0.3-0.6c-0.1-0.2-0.1-0.4-0.1-0.6c0.4-0.2,0.8-0.3,1.2-0.4C78.2,1.5,78.3,1.8,78.3,2.6z
			 M79.1,6.8c0.1,2-1.2,3.8-3.1,4.5c-1,0.4-2.1,0.6-3.2,0.6c-0.1-0.3-0.2-0.7-0.2-1v-0.4c0.8,0,1.7-0.2,2.4-0.5
			c1.4-0.4,2.4-1.7,2.4-3.2c0-0.9-1.2-1.7-3.7-2.3c-1.6-0.4-3.2-0.7-4.9-0.8c-0.1-0.5,0-1,0.1-1.5c1,0,2,0.1,3,0.3
			c1.5,0.2,3,0.6,4.4,1.2C78.2,4.4,79.1,5.5,79.1,6.8z"/>
		<path class="st0" d="M90.8,11.3c0,0.2,0,0.5-0.1,0.7c-1.6,0.1-3.2-0.1-4.7-0.5c-2-0.6-3-1.7-3-3.1c0-1.6,1.2-3.3,3.5-5
			c1.1-0.8,2.2-1.5,3.5-2.1c0.3,0.2,0.6,0.6,0.7,1c-0.3,0.3-0.6,0.6-1,0.8c-3.3,2.1-5,3.9-5,5.3c0,1.3,2.1,2.1,6.2,2.3
			C90.9,10.8,90.9,11.1,90.8,11.3z"/>
		<path class="st0" d="M102,2c0,1.2-0.1,2.3-0.1,3.3c-0.2,2.4-0.5,4.8-1,7.1c-0.1,0-0.2,0-0.4,0c-0.4,0-0.8-0.1-1.2-0.4
			c0.5-3.1,0.8-6.6,1.1-10.3c0.2,0,0.5-0.1,0.8-0.1C101.5,1.8,101.7,1.9,102,2z M96.5,5.9c0.1,0.1,0.1,0.3,0.1,0.5
			c0,0.3-0.1,0.6-0.2,0.9c-1,0-1.9-0.2-2.8-0.6c-0.1-0.4-0.1-0.7-0.1-1.1c0-1.6,0.2-3.2,0.4-4.8c0.5,0,1,0,1.5,0.2
			c-0.2,2.3-0.3,3.8-0.3,4.6C95.4,5.6,95.9,5.7,96.5,5.9z"/>
		<path class="st0" d="M108.4,10.5c-0.4-0.1-0.6-0.2-0.6-0.4s0.4-0.5,1.4-0.8l0.2,1.3C109,10.7,108.7,10.6,108.4,10.5z M115,3.1
			c-0.2,0.1-0.3,0.2-0.5,0.4l-0.4,0.6c0.6,0.6,1.2,1.1,1.8,1.5c0.2-0.1,0.4-0.2,0.5-0.4c0.1-0.2,0.2-0.3,0.3-0.5
			C116.3,4.1,115.7,3.5,115,3.1z M116.1,9.5c-1.2-1.4-3-2.1-4.8-2c-0.3,0-0.6,0-0.9,0c-0.2-1.3-0.4-2.3-0.5-3h2.5
			c0.1-0.2,0.1-0.5,0.1-0.7c0-0.2,0-0.5-0.1-0.7C111.5,3,110.6,3,109.6,3c-0.2-0.9-0.3-1.5-0.4-1.8h-0.3c-0.4,0-0.8,0.1-1.1,0.2
			l0.3,1.6l-2.8,0.1c0,0.3,0,0.6,0,0.7c0,0.2,0,0.4,0.1,0.6c1.3,0.1,2.3,0.1,3,0.2c0.2,1.4,0.4,2.5,0.5,3.2
			c-0.9,0.2-1.7,0.7-2.3,1.4c-0.3,0.3-0.5,0.7-0.5,1.1c0,0.5,0.5,1,1.6,1.4c0.7,0.3,1.5,0.5,2.3,0.5c0.3,0.1,0.7-0.1,0.9-0.3
			c0.1-0.2,0.1-0.4,0.1-0.7c0-0.8-0.1-1.6-0.3-2.3c0.2,0,0.5,0,0.8,0c2.1,0,3.9,1.2,4.6,3.2c0.3,0,0.5-0.1,0.8-0.2
			c0.2-0.1,0.3-0.2,0.5-0.3C117,10.8,116.6,10.1,116.1,9.5z"/>
		<path class="st0" d="M123.1,9.1c0.5,0.2,0.9,0.5,1.3,0.9c-0.3,0.4-0.5,0.8-0.9,1.1l-0.5,0.5c-0.2,0.2-0.4,0.4-0.6,0.6
			c-0.4-0.3-0.8-0.6-1.2-1C121.9,10.5,122.5,9.8,123.1,9.1z M125.6,10.6c0.2,0,0.5,0,0.7,0.1c0.1,0.4,0.2,0.9,0.2,1.4
			c0.6,0,1.2,0,1.9-0.1c0.1,0.2,0.1,0.4,0.1,0.6c0,0.2,0,0.4,0,0.6c-0.7,0.2-1.5,0.2-2.3,0.2c-0.4,0-0.7,0-1.1-0.1
			c-0.2-0.9-0.3-1.8-0.3-2.6C125.1,10.7,125.4,10.7,125.6,10.6z M127.9,9.1c0.4,0.4,0.7,0.9,0.9,1.4c-0.3,0.2-0.6,0.4-1,0.5
			c-0.4-0.4-0.8-0.9-1-1.4C127.1,9.3,127.5,9.2,127.9,9.1z M131.1,9.8c0.3,0.5,0.5,1,0.6,1.5c-0.4,0.1-0.8,0.2-1.3,0.2
			c-0.2-0.5-0.4-1-0.5-1.5C130.3,9.9,130.7,9.8,131.1,9.8L131.1,9.8z M121.1,2.6c0.2,0,0.5,0,0.7,0.1c0-0.4,0.1-0.8,0.1-1.1h1.5
			c0,0.4,0,0.9,0,1.2c0.4,0,0.7,0.1,1.1,0.2c0,0.4-0.1,0.8-0.2,1.2h-0.9c0,0.4,0,0.8,0,1.2l1.1-0.1c0.1,0.4,0.2,0.8,0.2,1.2
			c-0.4,0.1-0.9,0.2-1.3,0.2c0,0.7,0,1.3-0.1,1.8h-1.4c-0.1-0.5-0.1-1-0.1-1.6c-0.7,0.1-1.3,0.1-1.9,0.2c-0.2-0.4-0.3-0.8-0.3-1.2
			c0.7-0.1,1.4-0.3,2.2-0.3c0-0.5,0-1,0-1.5l-1-0.1c-0.2,0.4-0.3,0.8-0.4,1.2c-0.5,0-1-0.1-1.4-0.3c0.3-1.3,0.7-2.5,1.2-3.7
			c0.5,0,1,0.1,1.5,0.2C121.4,1.8,121.3,2.2,121.1,2.6L121.1,2.6z M127,3.3c-0.2,0.5-0.4,1-0.7,1.5c-0.5-0.1-0.9-0.2-1.4-0.4
			c0.5-1.5,1.2-3,2-4.4c0.5,0.1,1,0.2,1.5,0.5c-0.1,0.3-0.4,0.8-0.7,1.4c1.6,0.3,3.2,0.6,4.9,1c-0.1,2-0.3,4-0.8,6
			C131.5,9,131.2,9,130.9,9h-1.2c0-0.4,0-0.7,0-1.1c0.2,0,0.4-0.1,0.6-0.1c0.2-1.2,0.4-2.5,0.4-3.7C129.5,3.8,128.3,3.5,127,3.3
			L127,3.3z M125.9,5.3c0.5,0.1,0.9,0.2,1.4,0.4c-0.3,0.8-0.6,1.6-1.1,2.5c-0.5,0-0.9-0.2-1.3-0.3C125.1,6.9,125.5,6.1,125.9,5.3
			L125.9,5.3z M128.4,5c0.5,0.1,0.9,0.2,1.3,0.4c-0.3,0.9-0.6,1.8-1,2.7c-0.4,0-0.9-0.1-1.3-0.3C127.6,6.8,128,5.9,128.4,5z"/>
		<path class="st0" d="M140.5,2.6c0.1,0.4,0.1,0.9,0.1,1.2c-0.5,0.1-1,0.1-1.5,0.1c-0.1-0.5-0.2-1-0.3-1.4c-0.8,0-1.5-0.1-2.2-0.2
			c-0.1-0.2-0.1-0.3-0.1-0.5c0-0.2,0.1-0.4,0.1-0.6h1.9c0-0.3-0.1-0.6-0.1-0.9l1.6-0.1c0,0.4,0.1,0.7,0.1,1.1l4.1,0.1
			c0.1-0.4,0.2-0.9,0.3-1.3c0.3,0,0.5-0.1,0.8-0.1c0.2,0,0.4,0,0.6,0.1c0,0.4-0.1,0.9-0.1,1.3c0.7,0,1.5,0.1,2.2,0.2v0.5
			c0,0.2,0,0.4-0.1,0.6h-2.3c-0.1,0.2-0.1,0.5-0.1,0.7c-0.2,0.1-0.5,0.1-0.7,0.1c-0.3,0-0.5,0-0.8-0.1c0-0.2,0.1-0.4,0.1-0.7
			L140.5,2.6z M146.4,4.1c0.1,0.2,0.1,0.3,0.1,0.5c0,0.2,0,0.5,0,0.7c-2.6,0.3-5.3,0.5-8,0.5c-0.1-0.4-0.1-0.8-0.1-1.2
			C140.8,4.4,143.4,4.3,146.4,4.1z M139,6.4c0.4,0.4,0.6,0.9,0.7,1.4c-0.4,0.2-0.8,0.4-1.2,0.4c-0.4-0.4-0.6-1-0.6-1.5
			C138.2,6.6,138.6,6.5,139,6.4z M142.9,5.9c0.4,0.5,0.6,1,0.7,1.6c-0.4,0.2-0.8,0.3-1.3,0.4c-0.4-0.5-0.6-1.1-0.6-1.7
			C142,6.1,142.5,6,142.9,5.9L142.9,5.9z M145.7,6c0.5,0,0.9,0.1,1.3,0.3c-0.1,0.6-0.3,1.1-0.6,1.6c-0.5,0-0.9-0.1-1.3-0.3
			C145.3,7.1,145.4,6.5,145.7,6z M142.3,10.1c-1.1-0.1-2.2-0.1-3.3-0.2c-0.1-0.2-0.1-0.4-0.1-0.6c0-0.2,0-0.3,0-0.5h3.3
			c0-0.2,0-0.3,0-0.5c0.5-0.1,0.9-0.2,1.4-0.2c0,0.3,0.1,0.5,0.1,0.7c1.1,0,2.2,0.1,3.3,0.2v0.5c0,0.2,0,0.4-0.1,0.7
			c-1,0-2.1,0-3.1-0.1c0.1,1.1,0.2,2.1,0.2,3.1c-0.3,0.1-0.6,0.2-0.9,0.2c-0.5,0-0.9,0-1.4-0.1c-0.1-0.3-0.1-0.6-0.1-0.9
			c0.3,0,0.6,0,0.9-0.1c0-0.3-0.1-0.6-0.1-0.9c-1,0.5-2,0.9-3,1.4c-0.3-0.4-0.5-0.8-0.7-1.2C139.9,11.2,141.1,10.7,142.3,10.1
			L142.3,10.1L142.3,10.1z M145.3,10.6c0.9,0.3,1.9,0.6,2.8,0.9c-0.1,0.4-0.3,0.7-0.5,1c-0.9-0.2-1.9-0.5-2.8-0.9
			C144.9,11.3,145.1,10.9,145.3,10.6L145.3,10.6z"/>
		<path class="st1" d="M45.3,47.1c-3,5.5-4.5,6.9-6.2,8.4l-1,1c-4.6,3.9-10.1,6.6-16.1,7.8c-1.5,0.3-2.9,0.4-4.4,0.4
			C12.5,64.8,7.5,62.4,4.4,58C0.3,52.4,0,40,0,39.9C0.8,19.2,10.3,7.6,10.4,7.5l0.1-0.1l0.1,0.1c1.6,2.2,4.3,3.2,7,2.7l0.2-0.1
			l-0.2,0.6C15.4,15.6,13.9,20.7,13,26c-1.1,7.5-1.6,12,0,18.2c1.7,6.6,5.6,7.7,6.7,7.9l0.3,0c1.8,0.3,5.1,0.9,10-2.3
			c2.9-1.9,5.7-4.1,8.2-6.4c0.4-0.3,0.7-0.6,0.9-0.8c0.8-0.6,1.8-0.8,2.7-0.5c1.4,0.3,2.6,1.2,3.3,2.5
			C45.9,45.3,45.9,46.3,45.3,47.1z"/>
		<path class="st1" d="M30.1,24.9l0.3,0.3v0.1c-0.8,1.3-2.2,2.2-3.8,2.2c-2.6,0-4.7-2.5-4.7-5.5s2.1-5.5,4.7-5.5
			c1.9,0.1,3.5,1.3,4.2,3v0.1h-0.1C30.6,19.6,28,21.3,30.1,24.9z"/>
		<path class="st1" d="M42.2,24.6l0.3,0.3V25c-0.8,1.3-2.2,2.2-3.8,2.2c-2.6,0-4.7-2.5-4.7-5.5s2.1-5.5,4.7-5.5
			c1.9,0.1,3.5,1.3,4.2,3v0.1h-0.1C42.7,19.3,40.2,21,42.2,24.6z"/>
		<path class="st1" d="M103.9,25c-0.1,0.8,0.1,1.6,0.5,2.3l0.2,0.2v0.1c-0.7,0.9-1.7,1.5-2.9,1.4c-2.1-0.1-3.7-1.9-3.6-4
			c0.1-2,1.7-3.5,3.6-3.6c1.4,0,2.6,0.8,3.2,2.1l0.1,0.1l-0.1,0C104.3,23.9,104,24.4,103.9,25z"/>
		<path class="st1" d="M112.4,25c-0.1,0.8,0.1,1.6,0.5,2.3l0.2,0.2v0.1c-0.7,0.9-1.7,1.5-2.9,1.4c-2.1-0.1-3.7-1.9-3.6-4
			c0.1-2,1.7-3.5,3.6-3.6c1.4,0,2.6,0.8,3.2,2.1v0.1l-0.1,0C112.9,23.9,112.5,24.4,112.4,25z"/>
		<path class="st1" d="M77.8,54c0,0-2.7,4.1-2.6,6.8l0.1,0.4h-0.1c-0.8,0.6-1.7,1.1-2.6,1.4c-3.4,1-4.5,0.7-5.7,0.4
			c-0.3-0.1-0.6-0.2-0.8-0.2c-1.6-0.5-2.8-1.9-3-3.6c0-1.1-0.1-4.3-0.1-4.3c-0.6-2.5-1.8-2.4-3.8-2c-1.8,0.4-3.2,2.6-3.2,2.6
			c-2.8,5.6-3.8,6.7-3.8,6.7c-0.5,0.7-1.3,1.1-2.2,1.2c-0.8-0.1-1.6-0.3-2.3-0.6c-2-0.8-1.5-4.2-1.5-4.3c1.2-9.9,6-19.1,13.5-25.8
			c0.1,0,2-1,3.3,0c0.3,0.2,0.5,0.4,0.8,0.5c0.9,0.6,1.4,1,1.3,2.1c-0.3,1.6-0.9,3.1-1.8,4.5c-0.5,0.8-1.7,2.6-2.5,3.9l-0.8,1.3
			c1-0.4,4.1-1.5,6.6-0.3c1.4,0.7,2.3,2,2.6,3.5c0,0,0.5,4.5,1.6,5.5c1.3,1.1,3.8,1.8,6.9,0.2l0.4-0.2L77.8,54z"/>
		<path class="st1" d="M112.6,57.2c-0.7,0.5-1.5,0.9-2.2,1.4c-0.4,0.2-1,0.3-1.5,0.2c-0.9-0.2-1.6-0.8-2-1.6
			c-0.1-0.1-5.8-9.7-8.7-12.3c-4.6-4.3-10-2.9-11-2.2c-0.2,0.2-0.5,0.3-0.8,0.5c-2.9,1.7-5.2,4.2-6.7,7.3l-0.2,0.3l-0.1-0.6
			c0,0-1.2-3.8-4.1-5.3h-0.1v-0.1c0-0.1,2.2-7.8,11.9-13.2c5.3-2.4,11.6-0.8,15,4c4.5,5.6,8.2,11.8,11,18.4
			C113.8,55.2,113.5,56.5,112.6,57.2z"/>
		<path class="st1" d="M150,58.1l-0.1,0.1c0,0-3.7,3.6-8.1,3.6c-2,0-4-0.8-5.5-2.1c-0.4,0.5-2.3,3.2-4.5,4c-0.4,0.1-0.8,0.2-1.2,0.2
			c-0.8,0-1.6-0.3-2.2-0.7c-1-0.7-1.5-1.7-1.6-2.9c-0.1-0.3-1.3-4.1,5.2-9.5c2.2-1.3,4-3.4,4.9-5.8c-1.6,0.2-13.8,1.7-21.6-0.9
			c-1.1-0.1-1.9-0.9-2.2-2c-0.3-1.4,0.1-2.8,1.1-3.8l0.2-0.2c0.3-0.3,0.4-0.3,1.2-0.6l0,0c0.2,0,14.8-1.9,25,1.7
			c2.3,1.2,3.5,3.8,2.9,6.4l0,0c0,0-2.7,5.2-4.4,7.8c1.4-0.6,3,0,3.8,1.3c0.2,0.5,0.6,0.8,1.1,0.9c1.4,0.4,3.5-0.8,4.3-1.3l0.2-0.1
			v0.2C148.4,54.5,147.9,57.2,150,58.1L150,58.1z"/>
		<path class="st1" d="M141.4,31.6c-0.2,0.9-1.3,1.6-3,1.9c-1.2,0.2-2.5,0.3-3.7,0.3c-3.3,0-7.7-0.6-10.3-3c-1.1-1-1.5-1.9-1.2-2.7
			c0.5-1.5,3.5-2,4-2c0.1,0,8.3-0.7,12.3,2.5C141,29.6,141.7,30.7,141.4,31.6z"/>
	</g>
</g>
</svg>
